<svg width="34" height="33" viewBox="0 0 34 33" fill="none" xmlns="http://www.w3.org/2000/svg">
<path d="M21.4408 2.66067C21.6701 2.20198 22.2044 1.99657 22.6751 2.16732L22.7824 2.21346L28.7824 5.21346C29.0835 5.36403 29.2861 5.65435 29.3274 5.98303L29.3352 6.10788V26.8718C29.3352 27.2085 29.1661 27.5195 28.8906 27.7034L28.7824 27.7663L22.7824 30.7663C22.6435 30.8357 22.4904 30.8718 22.3352 30.8718C21.8223 30.8718 21.3997 30.4858 21.3419 29.9884L21.3352 29.8718L21.3347 28.4897L10.3351 28.4899C9.8223 28.4899 9.39963 28.1038 9.34186 27.6065L9.33513 27.4899L9.33504 22.045C8.80353 22.129 8.24295 21.9985 7.79292 21.6487L7.6472 21.5239L2.88867 16.9709L5.73072 14.2515L8.94414 17.3259L9.33467 16.9097L9.33513 5.48985C9.33513 4.97701 9.72118 4.55434 10.2185 4.49658L10.3351 4.48985L21.3347 4.48967L21.3352 3.10788C21.3352 2.99145 21.3555 2.87622 21.395 2.7673L21.4408 2.66067Z" fill="black"/>
<path d="M21.335 5.48999V27.49H10.335V21.529L10.424 21.44L17.726 13.677L14.742 11.108L10.335 15.791V5.48999H21.335Z" fill="#DBE3E8"/>
<path d="M22.335 3.10767L28.335 6.10767V26.8717L22.335 29.8717V3.10767Z" fill="#75A8F9"/>
<path d="M24.335 17.49C24.8873 17.49 25.335 17.0423 25.335 16.49C25.335 15.9377 24.8873 15.49 24.335 15.49C23.7827 15.49 23.335 15.9377 23.335 16.49C23.335 17.0423 23.7827 17.49 24.335 17.49Z" fill="white"/>
<path d="M14.868 12.49L16.335 13.7533L9.74883 20.7553C9.39954 21.1267 8.83343 21.1718 8.43199 20.8789L8.32909 20.7927L4.33496 16.971L5.73059 15.6357L8.98196 18.7462L14.868 12.49Z" fill="#71C865"/>
</svg>
