<svg width="37" height="37" viewBox="0 0 37 37" fill="none" xmlns="http://www.w3.org/2000/svg">
<g clip-path="url(#clip0_496_647)">
<path d="M25.3931 4.59003C29.9951 4.59003 33.7261 8.35003 33.7261 12.989C33.7261 14.993 33.0281 16.833 31.8661 18.278H34.4761C34.7861 18.278 35.0391 18.529 35.0391 18.84C35.0391 19.116 34.8391 19.346 34.5771 19.393L34.4761 19.403L30.8791 19.402L19.5671 32.142C19.1551 32.607 18.4441 32.649 17.9791 32.237L17.9301 32.191L6.57209 19.401L2.97609 19.403C2.66609 19.403 2.41309 19.151 2.41309 18.84C2.41309 18.564 2.61309 18.334 2.87509 18.287L2.97609 18.277H5.58609C4.42309 16.834 3.72609 14.994 3.72609 12.99C3.72609 8.35003 7.45709 4.59003 12.0591 4.59003C14.7861 4.59003 17.2061 5.91003 18.7261 7.94903C20.2461 5.90903 22.6661 4.59003 25.3931 4.59003Z" fill="black"/>
<path d="M15.6396 14.27L18.9466 23.53L18.9896 23.623C19.1856 23.967 19.6816 24 19.9216 23.686L19.9796 23.592L22.0736 19.402H29.3756L18.7266 31.396L8.07656 19.402H12.7266L12.8316 19.392C12.9676 19.367 13.0896 19.292 13.1746 19.181L13.2296 19.091L15.6396 14.269V14.27ZM25.3936 5.71503C29.3726 5.71503 32.6016 8.97003 32.6016 12.989C32.6016 14.684 32.0256 16.286 30.9916 17.571L30.7776 17.823L30.3736 18.277H21.7266L21.6216 18.287C21.4856 18.313 21.3636 18.389 21.2786 18.499L21.2236 18.589L19.5626 21.909L16.2566 12.651L16.2136 12.557C16.0176 12.213 15.5216 12.18 15.2816 12.494L15.2236 12.588L12.3796 18.277H7.07656L6.67256 17.82L6.45956 17.568C5.42756 16.286 4.85156 14.684 4.85156 12.988C4.85156 8.97003 8.08156 5.71503 12.0596 5.71503C14.2556 5.71503 16.2856 6.71103 17.6436 8.38803L17.8246 8.62103L18.7266 9.83103L19.6286 8.62103L19.8086 8.38803C21.1686 6.71103 23.1986 5.71503 25.3936 5.71503Z" fill="#F85B5B"/>
<path d="M26.0396 14.716C27.5931 14.716 28.8526 13.4566 28.8526 11.903C28.8526 10.3494 27.5931 9.09003 26.0396 9.09003C24.486 9.09003 23.2266 10.3494 23.2266 11.903C23.2266 13.4566 24.486 14.716 26.0396 14.716Z" fill="white"/>
</g>
<defs>
<clipPath id="clip0_496_647">
<rect width="36" height="36" fill="white" transform="translate(0.726562 0.0900269)"/>
</clipPath>
</defs>
</svg>
