<svg width="17" height="17" viewBox="0 0 17 17" fill="none" xmlns="http://www.w3.org/2000/svg">
<g clip-path="url(#clip0_496_495)">
<path fill-rule="evenodd" clip-rule="evenodd" d="M15.9021 7.44267C15.9021 11.3406 12.5666 14.5015 8.45082 14.5015C4.336 14.5015 1 11.3406 1 7.44267C1 3.54385 4.336 0.38385 8.45082 0.38385C12.5666 0.38385 15.9021 3.54385 15.9021 7.44267Z" fill="#A5D6AB"/>
<path fill-rule="evenodd" clip-rule="evenodd" d="M16.0723 9.60172L14.7297 12.2389L11.9791 14.7697L8.47979 15.6074L4.87038 14.7697L2.15367 12.3838L0.864258 9.60172L8.47979 1.96313L16.0723 9.60172Z" fill="#0C8546"/>
<path fill-rule="evenodd" clip-rule="evenodd" d="M8.86331 9.12645H11.5584V8.81256C11.5583 8.05436 11.2863 7.32132 10.7918 6.74658C10.2973 6.17184 9.61302 5.79352 8.86331 5.68033V9.12645ZM8.00072 9.12645V5.68033C7.25101 5.79352 6.56676 6.17184 6.07224 6.74658C5.57772 7.32132 5.30573 8.05436 5.30566 8.81256V9.12645H8.00072ZM5.30566 13.4079H8.00072V10.0686H5.30566V13.4079ZM8.86331 13.4079H11.5584V10.0686H8.86331V13.4079Z" fill="white"/>
<path fill-rule="evenodd" clip-rule="evenodd" d="M8.48001 0.227613C12.8118 0.227613 16.3233 3.73867 16.3233 8.07044C16.3233 12.4022 12.8113 15.9137 8.48001 15.9137C4.14825 15.9137 0.636719 12.4017 0.636719 8.07044C0.637189 3.73867 4.14825 0.227613 8.48001 0.227613ZM8.48001 1.01161C4.58166 1.01161 1.42119 4.17208 1.42119 8.07044C1.42119 11.9688 4.58166 15.1293 8.48001 15.1293C12.3784 15.1293 15.5388 11.9688 15.5388 8.07044C15.5388 4.17208 12.3784 1.01161 8.48001 1.01161Z" fill="#0C8546"/>
</g>
<defs>
<clipPath id="clip0_496_495">
<rect width="16" height="16" fill="white" transform="translate(0.599609 0.189972)"/>
</clipPath>
</defs>
</svg>
