<svg width="16" height="17" viewBox="0 0 16 17" fill="none" xmlns="http://www.w3.org/2000/svg">
<g clip-path="url(#clip0_496_478)">
<mask id="mask0_496_478" style="mask-type:luminance" maskUnits="userSpaceOnUse" x="0" y="0" width="16" height="17">
<path d="M0 0.23999H16V16.24H0V0.23999Z" fill="white"/>
</mask>
<g mask="url(#mask0_496_478)">
<path fill-rule="evenodd" clip-rule="evenodd" d="M9.29696 4.36732C8.69029 4.74332 5.21229 7.10932 3.37629 12.952L3.35162 13.0313C3.27029 13.3046 3.19629 13.5847 3.12829 13.8713L3.09496 14.0167C3.06096 14.17 3.02829 14.3233 2.99696 14.4793C2.95229 14.7046 2.76896 14.89 2.53562 14.906C2.46134 14.9116 2.38674 14.9005 2.31732 14.8735C2.2479 14.8464 2.18543 14.8042 2.1345 14.7498C2.08358 14.6954 2.04551 14.6303 2.02309 14.5593C2.00067 14.4882 1.99447 14.4131 2.00496 14.3393C2.36696 11.9393 3.14696 10.5513 3.19162 10.4726C3.19211 10.4716 3.19231 10.4704 3.19219 10.4692C3.19207 10.4681 3.19165 10.4669 3.19096 10.466C2.54429 9.63598 2.00496 9.12932 2.00496 8.00265C2.00496 6.53132 3.00629 5.14932 4.04496 4.24532C6.57229 1.94465 12.0663 1.61998 13.9876 1.57798C14.265 1.57132 14.423 1.89332 14.265 2.12198C13.5963 3.09265 12.2983 5.23865 11.997 7.64665C11.6876 10.124 9.94229 12.1113 7.40362 12.1546C6.49429 12.1706 5.84029 12.0533 5.10962 11.68C5.10834 11.6794 5.10727 11.6785 5.10655 11.6773C5.10583 11.6761 5.10551 11.6747 5.10562 11.6733C5.13496 11.5193 5.92562 7.47198 9.50296 4.65598C9.52607 4.63826 9.54441 4.61505 9.55631 4.58847C9.56821 4.56188 9.5733 4.53275 9.57111 4.5037C9.56893 4.47465 9.55954 4.44661 9.5438 4.4221C9.52806 4.39759 9.50646 4.37739 9.48096 4.36332C9.45284 4.34749 9.421 4.33952 9.38874 4.34022C9.35649 4.34092 9.32435 4.35028 9.29696 4.36732Z" fill="#28871C"/>
</g>
</g>
<defs>
<clipPath id="clip0_496_478">
<rect width="16" height="16" fill="white" transform="translate(0 0.23999)"/>
</clipPath>
</defs>
</svg>
