<svg width="33" height="33" viewBox="0 0 33 33" fill="none" xmlns="http://www.w3.org/2000/svg">
<g clip-path="url(#clip0_496_579)">
<mask id="mask0_496_579" style="mask-type:luminance" maskUnits="userSpaceOnUse" x="0" y="0" width="33" height="33">
<path d="M0.935547 0.48999H32.9355V32.49H0.935547V0.48999Z" fill="white"/>
</mask>
<g mask="url(#mask0_496_579)">
<path fill-rule="evenodd" clip-rule="evenodd" d="M21.4952 25.2553L21.6139 25.362C22.8547 26.4126 24.4294 26.9865 26.0552 26.9806C27.6352 26.9806 29.1099 26.45 30.2712 25.542V29.8233H3.60455V25.5433C4.71197 26.4036 6.05732 26.9021 7.45789 26.9713L7.81922 26.9806L8.17522 26.9726C9.56165 26.9063 10.895 26.4194 11.9979 25.5766L12.2619 25.3633L12.3779 25.2566L12.4966 25.3633C13.6438 26.335 15.0801 26.9004 16.5819 26.9713L16.9379 26.9806L17.2926 26.9726C18.6785 26.906 20.0113 26.4191 21.1139 25.5766L21.3792 25.3633L21.4966 25.2566L21.4952 25.2553ZM30.2726 19.1566V23.2553C29.3472 24.554 27.7886 25.3806 26.0566 25.3806C24.6059 25.3806 23.2579 24.8033 22.3032 23.8153L22.1046 23.598L21.4979 22.8913L20.8912 23.598L20.6926 23.8153C20.2039 24.3146 19.6197 24.7104 18.9749 24.9794C18.3301 25.2483 17.6378 25.3847 16.9392 25.3806C16.2406 25.3848 15.5483 25.2484 14.9035 24.9795C14.2586 24.7105 13.6745 24.3146 13.1859 23.8153L12.9859 23.598L12.3806 22.8913L11.7726 23.598L11.5752 23.8153C11.0864 24.3148 10.5021 24.7108 9.85704 24.9797C9.21199 25.2486 8.51941 25.385 7.82055 25.3806C6.08855 25.3806 4.52722 24.554 3.60322 23.2526L3.60455 19.1566C4.14738 19.8079 4.82696 20.3316 5.59501 20.6907C6.36306 21.0497 7.20074 21.2352 8.04855 21.234C8.89639 21.2353 9.7341 21.0498 10.5022 20.6908C11.2702 20.3317 11.9498 19.808 12.4926 19.1566C13.0355 19.8081 13.7153 20.3319 14.4836 20.6909C15.2519 21.05 16.0898 21.2354 16.9379 21.234C17.7857 21.2353 18.6234 21.0498 19.3915 20.6908C20.1596 20.3317 20.8391 19.808 21.3819 19.1566C21.9249 19.8081 22.6046 20.3319 23.3729 20.6909C24.1412 21.05 24.9792 21.2354 25.8272 21.234C26.623 21.2352 27.4104 21.0719 28.14 20.7543C28.8697 20.4368 29.5258 19.9718 30.0672 19.3886L30.2726 19.1566ZM8.93522 12.49C9.11203 12.49 9.2816 12.5602 9.40663 12.6852C9.53165 12.8103 9.60189 12.9798 9.60189 13.1566V14.49C9.60189 14.6668 9.53165 14.8364 9.40663 14.9614C9.2816 15.0864 9.11203 15.1566 8.93522 15.1566C8.75841 15.1566 8.58884 15.0864 8.46382 14.9614C8.33879 14.8364 8.26855 14.6668 8.26855 14.49V13.1566C8.26855 12.9798 8.33879 12.8103 8.46382 12.6852C8.58884 12.5602 8.75841 12.49 8.93522 12.49ZM13.0152 11.6286L13.9592 12.5713C14.0807 12.697 14.1479 12.8654 14.1463 13.0402C14.1448 13.215 14.0747 13.3822 13.9511 13.5058C13.8275 13.6295 13.6603 13.6996 13.4855 13.7011C13.3107 13.7026 13.1423 13.6354 13.0166 13.514L12.0739 12.5713C11.9524 12.4456 11.8853 12.2772 11.8868 12.1024C11.8883 11.9276 11.9584 11.7604 12.082 11.6368C12.2056 11.5132 12.3728 11.443 12.5476 11.4415C12.7224 11.44 12.8895 11.5072 13.0152 11.6286ZM5.95922 11.6286C6.0842 11.7537 6.15441 11.9232 6.15441 12.1C6.15441 12.2767 6.0842 12.4463 5.95922 12.5713L5.01655 13.514C4.89082 13.6354 4.72242 13.7026 4.54762 13.7011C4.37282 13.6996 4.20561 13.6295 4.08201 13.5058C3.9584 13.3822 3.88829 13.215 3.88677 13.0402C3.88525 12.8654 3.95245 12.697 4.07389 12.5713L5.01655 11.6286C5.14157 11.5037 5.31111 11.4334 5.48789 11.4334C5.66466 11.4334 5.8342 11.5037 5.95922 11.6286ZM31.5712 3.58064C31.6298 3.81517 31.6014 4.06297 31.4913 4.2782C31.3813 4.49342 31.197 4.66149 30.9726 4.7513L30.8432 4.79397L30.1979 4.95397C29.8662 5.03688 29.5681 5.21976 29.3439 5.47783C29.1197 5.73589 28.9803 6.05666 28.9446 6.39664L28.9352 6.5713V19.1566H26.9352L26.9339 15.822H19.6006L19.6019 19.1566H17.6019V6.5713C17.602 5.79476 17.8487 5.03832 18.3064 4.41099C18.7641 3.78366 19.4091 3.31783 20.1486 3.08064L20.3792 3.01397L21.0246 2.85397C21.2697 2.79436 21.5283 2.82961 21.7486 2.95266C21.9688 3.0757 22.1344 3.27745 22.2122 3.51746C22.2899 3.75747 22.2741 4.018 22.1678 4.24682C22.0616 4.47564 21.8728 4.65584 21.6392 4.7513L21.5099 4.79397L20.8646 4.95397C20.5329 5.03688 20.2348 5.21976 20.0106 5.47783C19.7864 5.73589 19.647 6.05666 19.6112 6.39664L19.6019 6.5713L19.6006 8.48997H26.9339L26.9352 6.57264C26.9354 5.7961 27.1821 5.03966 27.6398 4.41233C28.0974 3.785 28.7425 3.31917 29.4819 3.08197L29.7126 3.0153L30.3579 2.8553C30.4853 2.82334 30.6177 2.81678 30.7476 2.836C30.8775 2.85523 31.0024 2.89985 31.1151 2.96733C31.2277 3.03481 31.326 3.12382 31.4043 3.22928C31.4825 3.33474 31.5393 3.45325 31.5712 3.58064ZM26.9339 10.4886H19.6006V13.822H26.9339V10.4886ZM14.9352 7.8233C15.112 7.8233 15.2816 7.89354 15.4066 8.01857C15.5317 8.14359 15.6019 8.31316 15.6019 8.48997C15.6019 8.66678 15.5317 8.83635 15.4066 8.96137C15.2816 9.0864 15.112 9.15664 14.9352 9.15664H13.6019C13.4251 9.15664 13.2555 9.0864 13.1305 8.96137C13.0055 8.83635 12.9352 8.66678 12.9352 8.48997C12.9352 8.31316 13.0055 8.14359 13.1305 8.01857C13.2555 7.89354 13.4251 7.8233 13.6019 7.8233H14.9352ZM4.26855 7.8233C4.44537 7.8233 4.61493 7.89354 4.73996 8.01857C4.86498 8.14359 4.93522 8.31316 4.93522 8.48997C4.93522 8.66678 4.86498 8.83635 4.73996 8.96137C4.61493 9.0864 4.44537 9.15664 4.26855 9.15664H2.93522C2.75841 9.15664 2.58884 9.0864 2.46382 8.96137C2.33879 8.83635 2.26855 8.66678 2.26855 8.48997C2.26855 8.31316 2.33879 8.14359 2.46382 8.01857C2.58884 7.89354 2.75841 7.8233 2.93522 7.8233H4.26855ZM8.93522 5.15664C9.81928 5.15664 10.6671 5.50783 11.2922 6.13295C11.9174 6.75807 12.2686 7.60592 12.2686 8.48997C12.2686 9.37402 11.9174 10.2219 11.2922 10.847C10.6671 11.4721 9.81928 11.8233 8.93522 11.8233C8.05117 11.8233 7.20332 11.4721 6.5782 10.847C5.95308 10.2219 5.60189 9.37402 5.60189 8.48997C5.60189 7.60592 5.95308 6.75807 6.5782 6.13295C7.20332 5.50783 8.05117 5.15664 8.93522 5.15664ZM13.9592 3.62864C14.0842 3.75366 14.1544 3.92319 14.1544 4.09997C14.1544 4.27675 14.0842 4.44629 13.9592 4.5713L13.0166 5.51397C12.8908 5.63541 12.7224 5.70261 12.5476 5.70109C12.3728 5.69957 12.2056 5.62945 12.082 5.50585C11.9584 5.38224 11.8883 5.21504 11.8868 5.04024C11.8853 4.86544 11.9524 4.69704 12.0739 4.5713L13.0166 3.62864C13.1416 3.50366 13.3111 3.43345 13.4879 3.43345C13.6647 3.43345 13.8342 3.50366 13.9592 3.62864ZM5.01655 3.62864L5.95922 4.5713C6.08066 4.69704 6.14786 4.86544 6.14634 5.04024C6.14482 5.21504 6.07471 5.38224 5.9511 5.50585C5.8275 5.62945 5.66029 5.69957 5.48549 5.70109C5.31069 5.70261 5.14229 5.63541 5.01655 5.51397L4.07389 4.5713C3.95245 4.44557 3.88525 4.27717 3.88677 4.10237C3.88829 3.92757 3.9584 3.76036 4.08201 3.63676C4.20561 3.51315 4.37282 3.44304 4.54762 3.44152C4.72242 3.44 4.89082 3.5072 5.01655 3.62864ZM8.93522 1.8233C9.11203 1.8233 9.2816 1.89354 9.40663 2.01857C9.53165 2.14359 9.60189 2.31316 9.60189 2.48997V3.8233C9.60189 4.00011 9.53165 4.16968 9.40663 4.29471C9.2816 4.41973 9.11203 4.48997 8.93522 4.48997C8.75841 4.48997 8.58884 4.41973 8.46382 4.29471C8.33879 4.16968 8.26855 4.00011 8.26855 3.8233V2.48997C8.26855 2.31316 8.33879 2.14359 8.46382 2.01857C8.58884 1.89354 8.75841 1.8233 8.93522 1.8233Z" fill="#1E874F"/>
</g>
</g>
<defs>
<clipPath id="clip0_496_579">
<rect width="32" height="32" fill="white" transform="translate(0.935547 0.48999)"/>
</clipPath>
</defs>
</svg>
