<svg width="37" height="37" viewBox="0 0 37 37" fill="none" xmlns="http://www.w3.org/2000/svg">
<g clip-path="url(#clip0_496_621)">
<path fill-rule="evenodd" clip-rule="evenodd" d="M18.2627 10.215C19.5057 10.215 20.5127 11.222 20.5127 12.465L20.5137 14.828C23.0807 15.349 25.0127 17.619 25.0127 20.34V32.715C25.0127 33.336 24.5087 33.84 23.8877 33.84H8.1377C7.5167 33.84 7.0127 33.336 7.0127 32.715V20.34C7.0127 17.619 8.9447 15.349 11.5127 14.828V12.465C11.5127 11.222 12.5197 10.215 13.7627 10.215H18.2627Z" fill="#8DDAE4"/>
<path fill-rule="evenodd" clip-rule="evenodd" d="M18.2627 11.34H13.7627V6.84003H12.6377C12.0607 6.84003 11.5857 6.40603 11.5207 5.84603L11.5127 5.71503V3.46503C11.5127 2.88803 11.9467 2.41303 12.5067 2.34803L12.6377 2.34003H26.1377C27.9347 2.34003 29.4047 3.74503 29.5077 5.51703L29.5127 5.71503V9.09003H25.0127V6.84003H18.2627V11.34ZM17.1377 20.34V23.715H20.5127V25.965H17.1377V29.34H14.8877V25.965H11.5127V23.715H14.8877V20.34H17.1377Z" fill="white"/>
<path d="M26.1377 2.34003C27.9347 2.34003 29.4047 3.74503 29.5077 5.51703L29.5127 5.71503V9.09003H25.0127V6.84003H18.2627V10.215C19.5057 10.215 20.5127 11.222 20.5127 12.465V14.828C22.2117 15.173 23.6317 16.282 24.3987 17.782L27.1817 13.59L31.0017 19.34C31.3827 19.991 31.6017 20.75 31.6017 21.559C31.6017 23.992 29.6237 25.965 27.1817 25.965C26.3937 25.965 25.6537 25.759 25.0137 25.399L25.0127 32.715C25.0127 33.336 24.5087 33.84 23.8877 33.84H8.1377C7.5167 33.84 7.0127 33.336 7.0127 32.715V20.34C7.0127 17.619 8.9457 15.348 11.5127 14.827V12.465C11.5127 11.222 12.5197 10.215 13.7627 10.215V6.84003H12.6377C12.0607 6.84003 11.5857 6.40603 11.5207 5.84603L11.5127 5.71503V3.46503C11.5127 2.88803 11.9467 2.41303 12.5067 2.34803L12.6377 2.34003H26.1377ZM19.3877 15.84H12.6377C10.2277 15.84 8.2607 17.734 8.1437 20.115L8.1377 20.34V32.715H23.8877V24.496C23.1877 23.716 22.7627 22.687 22.7627 21.559C22.7627 20.749 22.9817 19.991 23.3627 19.339L23.6527 18.903C23.0767 17.19 21.4967 15.938 19.6127 15.846L19.3877 15.84ZM18.2627 11.34H13.7627C13.1857 11.34 12.7107 11.774 12.6457 12.334L12.6377 12.465V14.715H19.3877V12.465C19.3877 11.888 18.9537 11.413 18.3937 11.348L18.2627 11.34ZM12.7027 3.46303L12.6377 3.46503L12.6357 5.65003L12.6377 5.71503H14.8877V10.215H17.1377V5.71503H26.1377V7.96503H28.3877V5.74703L28.3837 5.58203C28.3187 4.45303 27.4227 3.55403 26.3067 3.47203L26.1377 3.46503L12.7027 3.46303Z" fill="#333333"/>
<path d="M27.1817 15.623L24.3337 19.909C24.0437 20.405 23.8877 20.969 23.8877 21.559C23.8877 23.37 25.3617 24.84 27.1817 24.84C29.0027 24.84 30.4767 23.37 30.4767 21.559C30.4767 21.054 30.3627 20.567 30.1677 20.159L30.0637 19.962L27.1817 15.622V15.623Z" fill="white"/>
</g>
<defs>
<clipPath id="clip0_496_621">
<rect width="36" height="36" fill="white" transform="translate(0.262695 0.0900269)"/>
</clipPath>
</defs>
</svg>
