<svg width="194" height="115" viewBox="0 0 194 115" fill="none" xmlns="http://www.w3.org/2000/svg">
<g clip-path="url(#clip0_496_744)">
<path d="M-112.562 61.831L113.076 -163.807L332.084 55.2017L106.446 280.84L-112.562 61.831Z" fill="#F3F4F4"/>
<path d="M124.714 83.1462L147.962 59.8978L180.934 92.8694L157.685 116.118L124.714 83.1462Z" fill="#83CDAC"/>
<path d="M125.058 36.1899L164.065 -2.81741L187.773 20.8904L148.765 59.8978L125.058 36.1899Z" fill="#F3F4F4"/>
<path d="M12.6602 97.2435L44.395 65.5087L69.4273 90.541L37.6925 122.276L12.6602 97.2435Z" fill="#8AD0FF"/>
<path d="M163.814 44.5479L199.524 8.83823L216.521 25.8353L180.812 61.5449L163.814 44.5479Z" fill="#83CDAC"/>
<path d="M50.9404 59.2014L51.9174 58.2244L190.496 196.804L189.52 197.78L50.9404 59.2014Z" fill="#ECECEC"/>
<path d="M116.557 45.064L117.534 44.087L140.658 67.2118L139.681 68.1887L116.557 45.064Z" fill="#ECECEC"/>
<path d="M85.9229 -136.683L86.8998 -137.66L305.926 81.3657L304.949 82.3427L85.9229 -136.683Z" fill="#ECECEC"/>
<path d="M-53.6484 2.88399L-52.6715 1.90704L26.828 81.4065L25.851 82.3834L-53.6484 2.88399Z" fill="#ECECEC"/>
<path d="M28.6123 203.048L137.071 94.5883L138.048 95.5653L29.5892 204.025L28.6123 203.048Z" fill="#ECECEC"/>
<path d="M121.24 208.417L303.268 26.3894L304.245 27.3663L122.217 209.394L121.24 208.417Z" fill="#ECECEC"/>
<path d="M66.792 241.229L292.451 15.5698L293.428 16.5467L67.7696 242.206L66.792 241.229Z" fill="#ECECEC"/>
<path d="M145.116 17.2611L146.093 16.2842L169.087 39.2776L168.11 40.2546L145.116 17.2611Z" fill="#ECECEC"/>
<path d="M-12.4629 -38.3011L-11.4859 -39.2781L54.6665 26.8744L53.6896 27.8513L-12.4629 -38.3011Z" fill="#ECECEC"/>
<path d="M-44.6523 -6.11302L-43.6754 -7.08997L9.10591 45.6913L8.12897 46.6683L-44.6523 -6.11302Z" fill="#ECECEC"/>
<path d="M-47.6514 126.792L178.033 -98.8918L180.475 -96.4494L-45.209 129.235L-47.6514 126.792Z" fill="white"/>
<path d="M15.7422 190.178L241.421 -35.5002L243.863 -33.0578L18.1846 192.621L15.7422 190.178Z" fill="white"/>
<path d="M6.57715 181.011L137.846 49.7415L138.823 50.7184L7.55409 181.988L6.57715 181.011Z" fill="#ECECEC"/>
<path d="M-60.3115 114.14L165.377 -111.549L166.354 -110.572L-59.3346 115.117L-60.3115 114.14Z" fill="#ECECEC"/>
<path d="M62.5127 80.6969L92.78 50.4296L93.757 51.4065L63.4896 81.6739L62.5127 80.6969Z" fill="#ECECEC"/>
<path d="M33.8496 208.268L259.514 -17.3963L261.957 -14.9539L36.292 210.71L33.8496 208.268Z" fill="white"/>
<path d="M143.338 98.5424L163.008 78.8729L165.701 81.5654L146.03 101.235L143.338 98.5424Z" fill="#93D8B7"/>
<path d="M88.7236 48.8149L91.166 46.3726L216.047 171.254L213.605 173.696L88.7236 48.8149Z" fill="white"/>
<path d="M16.7119 -67.4844L20.6204 -71.3929L239.65 147.637L235.742 151.546L16.7119 -67.4844Z" fill="white"/>
<path d="M72.6517 57.4603C65.8857 57.4603 60.2886 54.6994 57.1768 52.0788L57.0027 51.9192L-22.8457 -27.9299L-18.9372 -31.8377L60.8123 47.9119C62.029 48.8799 75.0478 58.5941 89.9051 43.7395L205.287 -71.643L209.195 -67.7352L93.8136 47.6473C86.4589 55.002 79.0351 57.4603 72.6517 57.4603Z" fill="white"/>
<path d="M163.418 45.795L165.86 43.3526L254.905 132.397L252.462 134.839L163.418 45.795Z" fill="white"/>
<path d="M-34.9697 139.474L190.683 -86.2426L194.592 -82.3348L-31.0606 143.382L-34.9697 139.474Z" fill="#FEE379"/>
<path d="M-87.4033 87.0436L138.249 -138.673L142.158 -134.765L-83.4942 90.9514L-87.4033 87.0436Z" fill="#FEE379"/>
<path d="M48.6338 223.073L274.286 -2.64328L278.195 1.2645L52.5423 226.981L48.6338 223.073Z" fill="#FEE379"/>
<path d="M-7.82031 166.626L217.864 -59.0588L220.307 -56.6164L-5.37795 169.068L-7.82031 166.626Z" fill="white"/>
<path d="M-38.2842 -12.4901L-34.3757 -16.3986L184.654 202.631L180.746 206.54L-38.2842 -12.4901Z" fill="#FEE379"/>
<path d="M-71.2051 20.4296L-67.2966 16.5211L151.733 235.551L147.825 239.46L-71.2051 20.4296Z" fill="#FEE379"/>
<path d="M58.6473 58.7578C63.6281 58.7578 67.6658 54.7201 67.6658 49.7394C67.6658 44.7586 63.6281 40.7209 58.6473 40.7209C53.6666 40.7209 49.6289 44.7586 49.6289 49.7394C49.6289 54.7201 53.6666 58.7578 58.6473 58.7578Z" fill="#FEE379"/>
<path d="M58.6471 52.8298C60.3539 52.8298 61.7375 51.4462 61.7375 49.7394C61.7375 48.0326 60.3539 46.6489 58.6471 46.6489C56.9403 46.6489 55.5566 48.0326 55.5566 49.7394C55.5566 51.4462 56.9403 52.8298 58.6471 52.8298Z" fill="white"/>
<path d="M52.8399 47.7565L-22.8457 -27.9299L-18.9372 -31.8376L56.6496 43.7492L52.8399 47.7565Z" fill="#FEE379"/>
<path d="M109.041 53.406C109.041 46.3145 102.91 40.6553 95.6607 41.4381C89.9351 42.0558 85.5444 46.5225 85.0138 52.2571C84.6621 55.8954 85.9866 59.4957 88.612 62.0389C89.5883 62.9869 90.4975 64.0025 91.3321 65.0776C93.6812 68.101 95.2565 71.6509 96.0891 75.3873L96.7675 78.4301H97.2325L97.9372 75.274C98.756 71.5984 100.283 68.0941 102.583 65.1121C103.386 64.0681 104.271 63.0905 105.231 62.1889C107.665 59.9165 109.045 56.7355 109.041 53.406Z" fill="#E44746"/>
<path d="M100.733 54.3533C100.733 56.415 99.0615 58.0856 96.9999 58.0856C94.9382 58.0856 93.2676 56.4143 93.2676 54.3526C93.2676 52.2909 94.9389 50.6203 96.9999 50.6203C99.0608 50.6203 100.733 52.2909 100.733 54.3533Z" fill="white"/>
<path d="M76.0254 -126.796L79.9339 -130.704L298.964 88.3259L295.055 92.2344L76.0254 -126.796Z" fill="#FEE379"/>
</g>
<defs>
<clipPath id="clip0_496_744">
<rect width="193.455" height="114" fill="white" transform="translate(0.272461 0.890015)"/>
</clipPath>
</defs>
</svg>
