<svg width="37" height="37" viewBox="0 0 37 37" fill="none" xmlns="http://www.w3.org/2000/svg">
<g clip-path="url(#clip0_496_600)">
<path fill-rule="evenodd" clip-rule="evenodd" d="M6.4248 4.46503V21.956C6.4248 23.26 7.0608 24.482 8.1278 25.231L18.2258 32.312C18.5698 32.554 19.0298 32.554 19.3738 32.312L29.4718 25.231C30.5388 24.482 31.1748 23.26 31.1748 21.956V4.46503C31.1748 3.91303 30.7268 3.46503 30.1748 3.46503H7.4248C6.8728 3.46503 6.4248 3.91303 6.4248 4.46503Z" fill="#71C865"/>
<path fill-rule="evenodd" clip-rule="evenodd" d="M28.3563 32.204L28.3613 33.278L28.3563 32.278C28.3383 28.786 31.3473 25.942 35.0783 25.925H35.1113C31.3783 25.925 28.3463 23.102 28.3283 19.609L28.3233 18.653V19.645C28.3233 23.113 25.3183 25.925 21.6113 25.925C25.3233 25.925 28.3373 28.731 28.3563 32.205V32.204Z" fill="#FFEE00"/>
<path d="M30.0498 3.46503C30.6268 3.46503 31.1018 3.89903 31.1668 4.45903L31.1748 4.59003V21.696C31.1748 22.391 31.0148 23.065 30.7178 23.671C31.8418 24.716 33.3938 25.362 35.1128 25.362C35.8618 25.362 35.8628 26.486 35.1128 26.487L34.8258 26.493C31.5178 26.633 28.9028 29.182 28.9198 32.274L28.9248 33.274C28.9288 34.024 27.8038 34.03 27.7998 33.28L27.7938 32.207C27.7848 30.49 26.9638 28.947 25.6688 27.898L19.4458 32.262C19.1008 32.504 18.6548 32.531 18.2878 32.342L18.1538 32.262L8.3408 25.38C7.2108 24.587 6.5108 23.323 6.4318 21.954L6.4248 21.696V4.59003C6.4248 4.01303 6.8588 3.53803 7.4188 3.47303L7.5498 3.46503H30.0498ZM30.0498 4.59003H7.5498V21.696C7.5498 22.723 8.0168 23.69 8.8118 24.328L8.9868 24.459L18.7998 31.341L24.6578 27.232C23.7598 26.758 22.7208 26.487 21.6118 26.487L21.4938 26.477C20.8638 26.366 20.9038 25.362 21.6128 25.362L21.8668 25.358C25.1518 25.234 27.7608 22.715 27.7608 19.645V18.653C27.7608 17.904 28.8818 17.902 28.8858 18.649L28.8908 19.606C28.8968 20.753 29.2628 21.823 29.8908 22.722C29.9728 22.462 30.0248 22.192 30.0428 21.915L30.0498 21.696V4.59003ZM28.3378 22.255C27.6308 23.866 26.2908 25.164 24.6128 25.88L24.5048 25.923L24.6178 25.969C26.2988 26.683 27.6438 27.979 28.3588 29.589L28.4318 29.43C29.1578 27.91 30.4518 26.683 32.0618 25.988L32.2098 25.926L32.0908 25.878C30.4768 25.192 29.1718 23.973 28.4318 22.458L28.3378 22.255ZM21.6118 6.84003C21.9228 6.84003 22.1748 7.09203 22.1748 7.40303V11.34H26.1128C26.4228 11.34 26.6748 11.592 26.6748 11.903V17.527C26.6748 17.838 26.4228 18.09 26.1118 18.09H22.1748V22.028C22.1748 22.338 21.9228 22.59 21.6118 22.59H15.9868C15.6768 22.59 15.4248 22.338 15.4248 22.027V18.09H11.4868C11.1768 18.09 10.9248 17.838 10.9248 17.527V11.902C10.9248 11.592 11.1768 11.34 11.4878 11.34H15.4248V7.40203C15.4248 7.09203 15.6768 6.84003 15.9878 6.84003H21.6118Z" fill="#333333"/>
<path d="M21.0498 7.96503H16.5498V12.465H12.0498V16.965H16.5498V21.465H21.0498V16.965H25.5498V12.465H21.0498V7.96503Z" fill="white"/>
</g>
<defs>
<clipPath id="clip0_496_600">
<rect width="36" height="36" fill="white" transform="translate(0.799805 0.0900269)"/>
</clipPath>
</defs>
</svg>
