<svg width="27" height="28" viewBox="0 0 27 28" fill="none" xmlns="http://www.w3.org/2000/svg">
<path d="M22.535 23.8887C23.0525 24.4062 23.8512 23.6075 23.3337 23.1012L19.115 18.8712C20.5437 17.285 21.41 15.1925 21.41 12.8975C21.41 7.95875 17.3938 3.9425 12.455 3.9425C7.51625 3.9425 3.5 7.95875 3.5 12.8975C3.5 17.8362 7.51625 21.8525 12.455 21.8525C14.6825 21.8525 16.7413 21.0312 18.3162 19.67L22.535 23.8887ZM4.62388 12.8975C4.62388 8.5775 8.14512 5.0675 12.4539 5.0675C16.7739 5.0675 20.2839 8.5775 20.2839 12.8975C20.2839 17.2175 16.7739 20.7275 12.4539 20.7275C8.14512 20.7275 4.62388 17.2175 4.62388 12.8975Z" fill="black"/>
</svg>
