<svg width="34" height="33" viewBox="0 0 34 33" fill="none" xmlns="http://www.w3.org/2000/svg">
<path fill-rule="evenodd" clip-rule="evenodd" d="M9.56773 29.99C8.84652 29.99 8.25977 29.4168 8.25977 28.7123V18.8612C8.25977 17.7218 8.58593 16.6086 9.20293 15.6418L12.2598 11.49H15.2598L19.0181 15.5684C19.8189 16.5743 20.2598 17.8296 20.2598 19.1039V28.7123C20.2598 29.4168 19.6731 29.99 18.9519 29.99H9.56773Z" fill="#A0E1E9" stroke="#333333"/>
<path fill-rule="evenodd" clip-rule="evenodd" d="M12.2598 11.49H15.2598V8.48999H12.2598V11.49Z" stroke="#333333"/>
<path fill-rule="evenodd" clip-rule="evenodd" d="M19.7598 5.98999H22.7598V2.98999H19.7598V5.98999Z" stroke="#333333"/>
<path fill-rule="evenodd" clip-rule="evenodd" d="M12.2598 25.49H20.2598V19.49H12.2598V25.49Z" fill="white" stroke="#333333"/>
<path fill-rule="evenodd" clip-rule="evenodd" d="M27.7564 13.8296L27.7598 14.49L27.7566 13.8745C27.7457 11.7262 29.5291 9.97598 31.74 9.96535C31.7466 9.96528 31.7532 9.96528 31.7598 9.96528C29.5474 9.96528 27.7509 8.22828 27.7397 6.0785L27.7367 5.48999V6.1009C27.7367 8.23509 25.9561 9.96528 23.7598 9.96528C25.9593 9.96528 27.7455 11.6922 27.7564 13.8296ZM23.7556 26.6828L23.7598 27.49L23.7559 26.7377C23.7421 24.1119 25.9714 21.9729 28.735 21.9599C28.7432 21.9598 28.7515 21.9598 28.7598 21.9598C25.9943 21.9598 23.7486 19.8368 23.7347 17.2093L23.7309 16.49V17.2367C23.7309 19.8452 21.5053 21.9598 18.7598 21.9598C21.5093 21.9598 23.7419 24.0706 23.7556 26.6828Z" stroke="#333333" stroke-linecap="round" stroke-linejoin="round"/>
<path fill-rule="evenodd" clip-rule="evenodd" d="M8.75977 8.98999V8.22753C8.75977 5.33951 11.2411 2.98999 14.2909 2.98999H19.7598V5.98999L17.0181 8.98999H8.75977Z" fill="#A0E1E9" stroke="#333333"/>
</svg>
