<svg width="34" height="33" viewBox="0 0 34 33" fill="none" xmlns="http://www.w3.org/2000/svg">
<path fill-rule="evenodd" clip-rule="evenodd" d="M6.30957 27.49H10.8096V29.49C10.8096 30.0423 10.3619 30.49 9.80957 30.49H7.30957C6.75729 30.49 6.30957 30.0423 6.30957 29.49V27.49ZM22.8096 27.49H27.3096V29.49C27.3096 30.0423 26.8619 30.49 26.3096 30.49H23.8096C23.2573 30.49 22.8096 30.0423 22.8096 29.49V27.49Z" fill="#787B81"/>
<path fill-rule="evenodd" clip-rule="evenodd" d="M9.30957 20.49H24.3096C25.9665 20.49 27.3096 21.8331 27.3096 23.49V28.49H6.30957V23.49C6.30957 21.8331 7.65272 20.49 9.30957 20.49Z" fill="#DDE9FD"/>
<path d="M10.1947 2.22385L10.1089 2.26389C9.81517 2.43426 9.7546 2.85102 10.0138 3.09641L14.4578 7.30346L11.3873 8.42125L9.49961 7.03408C8.79381 6.51536 7.87543 6.38382 7.0524 6.68355L6.15434 7.0106C5.81845 7.13293 5.70107 7.54836 5.92328 7.82839L9.06809 11.7913C9.76885 12.6743 10.9561 13.0099 12.0154 12.6243L26.4392 7.37425C27.5198 6.98108 28.077 5.78625 27.6833 4.70597L27.6218 4.55525C27.1767 3.57474 26.0444 3.08719 25.0153 3.46162L20.3516 5.15902L13.8829 1.78666C13.2312 1.44689 12.4667 1.39659 11.7761 1.64805L10.1947 2.22385Z" fill="#75A8F9"/>
<path d="M16.8096 13.99C19.0298 13.99 20.9528 14.0923 22.5801 14.2975C23.4942 14.4128 24.2654 15.0202 24.5964 15.8696L24.6566 16.0427L25.7166 19.49H27.3096C27.8619 19.49 28.3096 19.9377 28.3096 20.49C28.3096 21.0423 27.8619 21.49 27.3096 21.49L26.5458 21.4901C27.0208 22.0208 27.3096 22.7217 27.3096 23.49L27.3086 27.99L27.3096 29.49C27.3096 30.0028 26.9236 30.4255 26.4262 30.4833L26.3096 30.49H23.8096C23.2968 30.49 22.8741 30.104 22.8163 29.6066L22.8096 29.49V28.49H10.8096V29.49C10.8096 30.0028 10.4236 30.4255 9.9262 30.4833L9.80957 30.49H7.30957C6.79674 30.49 6.37407 30.104 6.3163 29.6066L6.30957 29.49V28.49V23.49C6.30957 22.7217 6.59839 22.0208 7.07338 21.4901L6.30957 21.49C5.75729 21.49 5.30957 21.0423 5.30957 20.49C5.30957 19.9377 5.75729 19.49 6.30957 19.49H7.90157L8.96255 16.0427C9.25157 15.1034 10.0641 14.4205 11.0392 14.2975C12.6664 14.0923 14.5894 13.99 16.8096 13.99ZM9.80957 28.49H7.30957V29.49H9.80957V28.49ZM26.3096 28.49H23.8096V29.49H26.3096V28.49ZM24.3096 21.49H9.30957C8.25521 21.49 7.39141 22.3059 7.31506 23.3407L7.30957 23.49L7.30857 27.49H26.3086L26.3096 23.49C26.3096 22.4356 25.4937 21.5718 24.4589 21.4955L24.3096 21.49ZM10.8096 22.74C11.7761 22.74 12.5596 23.5235 12.5596 24.49C12.5596 25.4565 11.7761 26.24 10.8096 26.24C9.84308 26.24 9.05957 25.4565 9.05957 24.49C9.05957 23.5235 9.84308 22.74 10.8096 22.74ZM22.8096 22.74C23.7761 22.74 24.5596 23.5235 24.5596 24.49C24.5596 25.4565 23.7761 26.24 22.8096 26.24C21.8431 26.24 21.0596 25.4565 21.0596 24.49C21.0596 23.5235 21.8431 22.74 22.8096 22.74ZM16.8096 14.99C14.6286 14.99 12.7464 15.0901 11.1643 15.2897C10.628 15.3573 10.1737 15.7072 9.9681 16.1992L9.91833 16.3367L8.61463 20.5709C8.83768 20.518 9.07036 20.49 9.30957 20.49H24.3096C24.5488 20.49 24.7815 20.518 25.0045 20.5709L23.7009 16.3368C23.5274 15.7732 23.0399 15.3635 22.4549 15.2897C20.8728 15.0901 18.9906 14.99 16.8096 14.99ZM13.7025 1.70118L13.8829 1.78666L20.3516 5.15902L25.0153 3.46162C25.993 3.10591 27.0637 3.52814 27.5499 4.41191L27.6218 4.55525L27.6833 4.70597C28.0591 5.73714 27.5685 6.8727 26.5832 7.31575L26.4392 7.37425L12.0154 12.6243C11.015 12.9885 9.90038 12.7094 9.18929 11.9334L9.06809 11.7913L5.92329 7.82839C5.71959 7.5717 5.80125 7.20123 6.075 7.04704L6.15435 7.0106L7.05241 6.68355C7.81665 6.40523 8.66311 6.49877 9.34523 6.92887L9.49962 7.03408L11.3873 8.42125L14.4578 7.30346L10.0138 3.09641C9.77817 2.87333 9.80681 2.50862 10.0347 2.31615L10.1089 2.26389L10.1947 2.22385L11.7761 1.64805C12.4039 1.41945 13.0928 1.44024 13.7025 1.70118ZM12.2803 2.53814L12.1182 2.5877L11.2596 2.89899L16.3203 7.68964L11.2264 9.54401L8.90741 7.83987C8.51473 7.55128 8.01561 7.45655 7.54882 7.57556L7.39461 7.62318L7.11757 7.72399L9.85142 11.1697C10.2537 11.6766 10.9152 11.8916 11.532 11.7289L11.6734 11.6846L26.0973 6.43452C26.6213 6.24384 26.9084 5.69039 26.7892 5.19003L26.7574 5.08378L26.7112 4.96856C26.4958 4.49399 25.9715 4.24487 25.472 4.36659L25.3573 4.40132L20.2798 6.24932L13.4206 2.67338C13.0681 2.4896 12.6622 2.44282 12.2803 2.53814Z" fill="#333333"/>
<path d="M10.8096 25.49C11.3619 25.49 11.8096 25.0423 11.8096 24.49C11.8096 23.9377 11.3619 23.49 10.8096 23.49C10.2573 23.49 9.80957 23.9377 9.80957 24.49C9.80957 25.0423 10.2573 25.49 10.8096 25.49Z" fill="white"/>
<path d="M22.8096 25.49C23.3619 25.49 23.8096 25.0423 23.8096 24.49C23.8096 23.9377 23.3619 23.49 22.8096 23.49C22.2573 23.49 21.8096 23.9377 21.8096 24.49C21.8096 25.0423 22.2573 25.49 22.8096 25.49Z" fill="white"/>
</svg>
