<svg width="11" height="11" viewBox="0 0 11 11" fill="none" xmlns="http://www.w3.org/2000/svg">
<path fill-rule="evenodd" clip-rule="evenodd" d="M5.60938 0.48999C8.37087 0.48999 10.6094 2.72849 10.6094 5.48999C10.6094 8.25149 8.37087 10.49 5.60938 10.49C2.84788 10.49 0.609375 8.25149 0.609375 5.48999C0.609375 2.72849 2.84788 0.48999 5.60938 0.48999ZM5.60938 0.98999C5.01843 0.98999 4.43326 1.10639 3.8873 1.33253C3.34133 1.55868 2.84526 1.89015 2.42739 2.30801C2.00953 2.72587 1.67806 3.22195 1.45192 3.76791C1.22577 4.31388 1.10937 4.89904 1.10937 5.48999C1.10937 6.08094 1.22577 6.6661 1.45192 7.21207C1.67806 7.75803 2.00953 8.25411 2.42739 8.67197C2.84526 9.08983 3.34133 9.4213 3.8873 9.64745C4.43326 9.87359 5.01843 9.98999 5.60938 9.98999C6.80285 9.98999 7.94744 9.51588 8.79136 8.67197C9.63527 7.82806 10.1094 6.68346 10.1094 5.48999C10.1094 4.29652 9.63527 3.15192 8.79136 2.30801C7.94744 1.4641 6.80285 0.98999 5.60938 0.98999ZM5.85938 4.48999C5.92568 4.48999 5.98927 4.51633 6.03615 4.56321C6.08304 4.6101 6.10938 4.67369 6.10938 4.73999V8.73999C6.10938 8.80629 6.08304 8.86988 6.03615 8.91677C5.98927 8.96365 5.92568 8.98999 5.85938 8.98999H5.35938C5.29307 8.98999 5.22948 8.96365 5.1826 8.91677C5.13571 8.86988 5.10938 8.80629 5.10938 8.73999V4.73999C5.10938 4.67369 5.13571 4.6101 5.1826 4.56321C5.22948 4.51633 5.29307 4.48999 5.35938 4.48999H5.85938ZM5.60938 1.98999C5.80829 1.98999 5.99905 2.06901 6.13971 2.20966C6.28036 2.35031 6.35938 2.54108 6.35938 2.73999C6.35938 2.9389 6.28036 3.12967 6.13971 3.27032C5.99905 3.41097 5.80829 3.48999 5.60938 3.48999C5.41046 3.48999 5.2197 3.41097 5.07904 3.27032C4.93839 3.12967 4.85938 2.9389 4.85938 2.73999C4.85938 2.54108 4.93839 2.35031 5.07904 2.20966C5.2197 2.06901 5.41046 1.98999 5.60938 1.98999Z" fill="#2A2A2E"/>
</svg>
