<svg width="11" height="11" viewBox="0 0 11 11" fill="none" xmlns="http://www.w3.org/2000/svg">
<path fill-rule="evenodd" clip-rule="evenodd" d="M5.72949 0.48999C8.49099 0.48999 10.7295 2.72849 10.7295 5.48999C10.7295 8.25149 8.49099 10.49 5.72949 10.49C2.96799 10.49 0.729492 8.25149 0.729492 5.48999C0.729492 2.72849 2.96799 0.48999 5.72949 0.48999ZM5.72949 0.98999C5.13854 0.98999 4.55338 1.10639 4.00742 1.33253C3.46145 1.55868 2.96538 1.89015 2.54751 2.30801C2.12965 2.72587 1.79818 3.22195 1.57203 3.76791C1.34589 4.31388 1.22949 4.89904 1.22949 5.48999C1.22949 6.08094 1.34589 6.6661 1.57203 7.21207C1.79818 7.75803 2.12965 8.25411 2.54751 8.67197C2.96538 9.08983 3.46145 9.4213 4.00742 9.64745C4.55338 9.87359 5.13854 9.98999 5.72949 9.98999C6.92297 9.98999 8.06756 9.51588 8.91147 8.67197C9.75539 7.82806 10.2295 6.68346 10.2295 5.48999C10.2295 4.29652 9.75539 3.15192 8.91147 2.30801C8.06756 1.4641 6.92297 0.98999 5.72949 0.98999ZM5.97949 4.48999C6.0458 4.48999 6.10939 4.51633 6.15627 4.56321C6.20315 4.6101 6.22949 4.67369 6.22949 4.73999V8.73999C6.22949 8.80629 6.20315 8.86988 6.15627 8.91677C6.10939 8.96365 6.0458 8.98999 5.97949 8.98999H5.47949C5.41319 8.98999 5.3496 8.96365 5.30272 8.91677C5.25583 8.86988 5.22949 8.80629 5.22949 8.73999V4.73999C5.22949 4.67369 5.25583 4.6101 5.30272 4.56321C5.3496 4.51633 5.41319 4.48999 5.47949 4.48999H5.97949ZM5.72949 1.98999C5.9284 1.98999 6.11917 2.06901 6.25982 2.20966C6.40047 2.35031 6.47949 2.54108 6.47949 2.73999C6.47949 2.9389 6.40047 3.12967 6.25982 3.27032C6.11917 3.41097 5.9284 3.48999 5.72949 3.48999C5.53058 3.48999 5.33981 3.41097 5.19916 3.27032C5.05851 3.12967 4.97949 2.9389 4.97949 2.73999C4.97949 2.54108 5.05851 2.35031 5.19916 2.20966C5.33981 2.06901 5.53058 1.98999 5.72949 1.98999Z" fill="#2A2A2E"/>
</svg>
