<svg width="12" height="11" viewBox="0 0 12 11" fill="none" xmlns="http://www.w3.org/2000/svg">
<path d="M1.17969 4.36502H1.67969C1.8786 4.36502 2.06937 4.44404 2.21002 4.58469C2.35067 4.72535 2.42969 4.91611 2.42969 5.11502V9.36502C2.42969 9.56394 2.35067 9.7547 2.21002 9.89535C2.06937 10.036 1.8786 10.115 1.67969 10.115H1.17969C0.980775 10.115 0.79001 10.036 0.649357 9.89535C0.508705 9.7547 0.429688 9.56394 0.429688 9.36502V5.11502C0.429688 4.91611 0.508705 4.72535 0.649357 4.58469C0.79001 4.44404 0.980775 4.36502 1.17969 4.36502ZM7.94669 3.50252L10.1097 3.43502C10.287 3.42948 10.4634 3.46173 10.6272 3.52962C10.7911 3.59752 10.9386 3.6995 11.06 3.8288C11.1814 3.9581 11.2739 4.11175 11.3314 4.27955C11.3888 4.44735 11.4099 4.62545 11.3932 4.80202L11.0347 8.60202C10.9252 9.75702 9.95169 10.9105 8.79119 10.9105H5.92969C5.40569 10.9105 4.89319 10.5135 4.42869 10.2705L3.85069 9.96902C3.72915 9.9056 3.62733 9.81007 3.55628 9.69283C3.48523 9.57559 3.44767 9.44111 3.44769 9.30402V5.16502C3.44769 4.85252 3.56419 4.55402 3.74769 4.35702C3.77129 4.32026 3.79806 4.28563 3.82769 4.25352L4.98919 3.00752L6.07169 0.819023C6.22408 0.51208 6.48808 0.275033 6.8096 0.156452C7.13112 0.0378704 7.48582 0.0467333 7.80102 0.181224C8.11621 0.315716 8.36805 0.565652 8.50492 0.879824C8.64179 1.194 8.65333 1.54861 8.53719 1.87102L7.94719 3.50252H7.94669Z" fill="#32A923"/>
</svg>
