<svg width="11" height="9" viewBox="0 0 11 9" fill="none" xmlns="http://www.w3.org/2000/svg">
<path fill-rule="evenodd" clip-rule="evenodd" d="M6.941 0.199997C7.03383 0.200047 7.12481 0.225939 7.20376 0.274773C7.28271 0.323608 7.3465 0.393457 7.388 0.476497L8 1.7H9.75C10.0152 1.7 10.2696 1.80535 10.4571 1.99289C10.6446 2.18043 10.75 2.43478 10.75 2.7V7.7C10.75 7.96521 10.6446 8.21957 10.4571 8.4071C10.2696 8.59464 10.0152 8.7 9.75 8.7H1.75C1.48478 8.7 1.23043 8.59464 1.04289 8.4071C0.855357 8.21957 0.75 7.96521 0.75 7.7V2.7C0.75 2.43478 0.855357 2.18043 1.04289 1.99289C1.23043 1.80535 1.48478 1.7 1.75 1.7H3.5L4.112 0.476497C4.1535 0.393457 4.21729 0.323608 4.29624 0.274773C4.37518 0.225939 4.46617 0.200047 4.559 0.199997H6.941ZM3 2.7H2C1.9337 2.7 1.87011 2.72634 1.82322 2.77322C1.77634 2.8201 1.75 2.88369 1.75 2.95C1.75 3.0163 1.77634 3.07989 1.82322 3.12677C1.87011 3.17366 1.9337 3.2 2 3.2H3C3.0663 3.2 3.12989 3.17366 3.17678 3.12677C3.22366 3.07989 3.25 3.0163 3.25 2.95C3.25 2.88369 3.22366 2.8201 3.17678 2.77322C3.12989 2.72634 3.0663 2.7 3 2.7ZM5.75 7.2C6.28043 7.2 6.78914 6.98928 7.16421 6.61421C7.53929 6.23914 7.75 5.73043 7.75 5.2C7.75 4.66956 7.53929 4.16086 7.16421 3.78578C6.78914 3.41071 6.28043 3.2 5.75 3.2C5.21957 3.2 4.71086 3.41071 4.33579 3.78578C3.96071 4.16086 3.75 4.66956 3.75 5.2C3.75 5.73043 3.96071 6.23914 4.33579 6.61421C4.71086 6.98928 5.21957 7.2 5.75 7.2ZM5.75 6.45C6.08152 6.45 6.39946 6.3183 6.63388 6.08388C6.8683 5.84946 7 5.53152 7 5.2C7 4.86848 6.8683 4.55053 6.63388 4.31611C6.39946 4.08169 6.08152 3.95 5.75 3.95C5.41848 3.95 5.10054 4.08169 4.86612 4.31611C4.6317 4.55053 4.5 4.86848 4.5 5.2C4.5 5.53152 4.6317 5.84946 4.86612 6.08388C5.10054 6.3183 5.41848 6.45 5.75 6.45Z" fill="white"/>
</svg>
