<svg width="13" height="11" viewBox="0 0 13 11" fill="none" xmlns="http://www.w3.org/2000/svg">
<path d="M9.69738 1.07306L5.31738 5.45356L3.75538 3.89206C3.56785 3.70459 3.31354 3.59927 3.04838 3.59927C2.78322 3.59927 2.52891 3.70459 2.34138 3.89206L1.22638 5.00706C1.03891 5.19459 0.933594 5.4489 0.933594 5.71406C0.933594 5.97922 1.03891 6.23353 1.22638 6.42106L4.60988 9.80456C4.79741 9.99203 5.05172 10.0973 5.31688 10.0973C5.58204 10.0973 5.83635 9.99203 6.02388 9.80456L12.2264 3.60206C12.4139 3.41453 12.5192 3.16022 12.5192 2.89506C12.5192 2.6299 12.4139 2.37559 12.2264 2.18806L11.1114 1.07306C10.9239 0.885589 10.6695 0.780273 10.4044 0.780273C10.1392 0.780273 9.88491 0.885589 9.69738 1.07306Z" fill="#32A923"/>
</svg>
