<svg width="12" height="12" viewBox="0 0 12 12" fill="none" xmlns="http://www.w3.org/2000/svg">
<path d="M10.6404 1.19H5.92588C5.85957 1.19 5.79598 1.16366 5.7491 1.11678C5.70221 1.06989 5.67588 1.00631 5.67588 0.940002C5.67588 0.873698 5.70221 0.81011 5.7491 0.763226C5.79598 0.716342 5.85957 0.690002 5.92588 0.690002H11.2594C11.3257 0.690002 11.3893 0.716342 11.4362 0.763226C11.483 0.81011 11.5094 0.873698 11.5094 0.940002V6.2735C11.5094 6.33981 11.483 6.4034 11.4362 6.45028C11.3893 6.49716 11.3257 6.5235 11.2594 6.5235C11.1931 6.5235 11.1295 6.49716 11.0826 6.45028C11.0357 6.4034 11.0094 6.33981 11.0094 6.2735V1.528L5.30288 7.25C5.25579 7.29561 5.19267 7.3209 5.12712 7.32043C5.06157 7.31995 4.99883 7.29375 4.95241 7.24746C4.90599 7.20117 4.87961 7.13851 4.87895 7.07296C4.87828 7.0074 4.9034 6.94422 4.94887 6.897L10.6404 1.19ZM8.60938 5.605C8.60938 5.5387 8.63571 5.47511 8.6826 5.42823C8.72948 5.38134 8.79307 5.355 8.85938 5.355C8.92568 5.355 8.98927 5.38134 9.03615 5.42823C9.08304 5.47511 9.10938 5.5387 9.10938 5.605V10.84C9.10938 11.0389 9.03036 11.2297 8.8897 11.3703C8.74905 11.511 8.55829 11.59 8.35938 11.59H1.35938C1.16046 11.59 0.969697 11.511 0.829045 11.3703C0.688393 11.2297 0.609375 11.0389 0.609375 10.84V3.84C0.609375 3.64109 0.688393 3.45032 0.829045 3.30967C0.969697 3.16902 1.16046 3.09 1.35938 3.09H6.64937C6.71568 3.09 6.77927 3.11634 6.82615 3.16323C6.87304 3.21011 6.89937 3.2737 6.89937 3.34C6.89937 3.40631 6.87304 3.46989 6.82615 3.51678C6.77927 3.56366 6.71568 3.59 6.64937 3.59H1.35938C1.29307 3.59 1.22948 3.61634 1.1826 3.66323C1.13571 3.71011 1.10938 3.7737 1.10938 3.84V10.84C1.10938 10.9063 1.13571 10.9699 1.1826 11.0168C1.22948 11.0637 1.29307 11.09 1.35938 11.09H8.35938C8.42568 11.09 8.48927 11.0637 8.53615 11.0168C8.58304 10.9699 8.60938 10.9063 8.60938 10.84V5.605Z" fill="#5392F9"/>
</svg>
