<svg width="12" height="11" viewBox="0 0 12 11" fill="none" xmlns="http://www.w3.org/2000/svg">
<path d="M8.77062 1.07306L4.39062 5.45356L2.82862 3.89206C2.64109 3.70459 2.38679 3.59927 2.12162 3.59927C1.85646 3.59927 1.60215 3.70459 1.41462 3.89206L0.299622 5.00706C0.112151 5.19459 0.00683594 5.4489 0.00683594 5.71406C0.00683594 5.97922 0.112151 6.23353 0.299622 6.42106L3.68312 9.80456C3.87065 9.99203 4.12496 10.0973 4.39012 10.0973C4.65529 10.0973 4.9096 9.99203 5.09712 9.80456L11.2996 3.60206C11.4871 3.41453 11.5924 3.16022 11.5924 2.89506C11.5924 2.6299 11.4871 2.37559 11.2996 2.18806L10.1846 1.07306C9.9971 0.885589 9.74279 0.780273 9.47762 0.780273C9.21246 0.780273 8.95815 0.885589 8.77062 1.07306Z" fill="#32A923"/>
</svg>
