<svg width="11" height="11" viewBox="0 0 11 11" fill="none" xmlns="http://www.w3.org/2000/svg">
<path fill-rule="evenodd" clip-rule="evenodd" d="M5.25 0.48999C8.0115 0.48999 10.25 2.72849 10.25 5.48999C10.25 8.25149 8.0115 10.49 5.25 10.49C2.4885 10.49 0.25 8.25149 0.25 5.48999C0.25 2.72849 2.4885 0.48999 5.25 0.48999ZM5.25 0.98999C4.65905 0.98999 4.07389 1.10639 3.52792 1.33253C2.98196 1.55868 2.48588 1.89015 2.06802 2.30801C1.65016 2.72587 1.31869 3.22195 1.09254 3.76791C0.866396 4.31388 0.75 4.89904 0.75 5.48999C0.75 6.08094 0.866396 6.6661 1.09254 7.21207C1.31869 7.75803 1.65016 8.25411 2.06802 8.67197C2.48588 9.08983 2.98196 9.4213 3.52792 9.64745C4.07389 9.87359 4.65905 9.98999 5.25 9.98999C6.44347 9.98999 7.58807 9.51588 8.43198 8.67197C9.27589 7.82806 9.75 6.68346 9.75 5.48999C9.75 4.29652 9.27589 3.15192 8.43198 2.30801C7.58807 1.4641 6.44347 0.98999 5.25 0.98999ZM5.5 4.48999C5.5663 4.48999 5.62989 4.51633 5.67678 4.56321C5.72366 4.6101 5.75 4.67369 5.75 4.73999V8.73999C5.75 8.80629 5.72366 8.86988 5.67678 8.91677C5.62989 8.96365 5.5663 8.98999 5.5 8.98999H5C4.9337 8.98999 4.87011 8.96365 4.82322 8.91677C4.77634 8.86988 4.75 8.80629 4.75 8.73999V4.73999C4.75 4.67369 4.77634 4.6101 4.82322 4.56321C4.87011 4.51633 4.9337 4.48999 5 4.48999H5.5ZM5.25 1.98999C5.44891 1.98999 5.63968 2.06901 5.78033 2.20966C5.92098 2.35031 6 2.54108 6 2.73999C6 2.9389 5.92098 3.12967 5.78033 3.27032C5.63968 3.41097 5.44891 3.48999 5.25 3.48999C5.05109 3.48999 4.86032 3.41097 4.71967 3.27032C4.57902 3.12967 4.5 2.9389 4.5 2.73999C4.5 2.54108 4.57902 2.35031 4.71967 2.20966C4.86032 2.06901 5.05109 1.98999 5.25 1.98999Z" fill="#2A2A2E"/>
</svg>
