<svg width="19" height="14" viewBox="0 0 19 14" fill="none" xmlns="http://www.w3.org/2000/svg">
<path d="M17.6768 0.779104L18.5885 1.6341C18.6285 1.67152 18.6607 1.71644 18.6833 1.76631C18.7058 1.81617 18.7184 1.87 18.7202 1.92472C18.722 1.97943 18.7129 2.03396 18.6936 2.08519C18.6743 2.13642 18.6451 2.18334 18.6077 2.22327L8.476 13.0299C8.29684 13.2211 8.05221 13.3377 7.79089 13.3566C7.52957 13.3754 7.27074 13.2951 7.06601 13.1316L6.97934 13.0541L1.02434 7.0991C0.946225 7.02097 0.902344 6.91501 0.902344 6.80452C0.902344 6.69404 0.946225 6.58807 1.02434 6.50994L1.90767 5.62577C1.98581 5.54766 2.09177 5.50378 2.20225 5.50378C2.31274 5.50378 2.4187 5.54766 2.49684 5.62577L7.69184 10.8208L17.0877 0.798271C17.1251 0.758309 17.17 0.726112 17.2199 0.703519C17.2697 0.680927 17.3236 0.668382 17.3783 0.666602C17.433 0.664822 17.4875 0.673842 17.5388 0.693145C17.59 0.712449 17.6369 0.741659 17.6768 0.779104Z" fill="#2A2A2E"/>
</svg>
