<svg width="19" height="14" viewBox="0 0 19 14" fill="none" xmlns="http://www.w3.org/2000/svg">
<path d="M17.2764 0.679129L18.1881 1.53413C18.2281 1.57154 18.2603 1.61647 18.2829 1.66633C18.3055 1.7162 18.318 1.77003 18.3198 1.82474C18.3216 1.87946 18.3125 1.93398 18.2932 1.98521C18.2739 2.03644 18.2447 2.08336 18.2073 2.1233L8.07561 12.93C7.89645 13.1211 7.65182 13.2377 7.3905 13.2566C7.12918 13.2754 6.87035 13.1951 6.66561 13.0316L6.57895 12.9541L0.623948 6.99913C0.545835 6.92099 0.501953 6.81503 0.501953 6.70455C0.501953 6.59406 0.545835 6.4881 0.623948 6.40996L1.50728 5.5258C1.58542 5.44768 1.69138 5.4038 1.80186 5.4038C1.91235 5.4038 2.01831 5.44768 2.09645 5.5258L7.29145 10.7208L16.6873 0.698296C16.7247 0.658333 16.7696 0.626136 16.8195 0.603544C16.8693 0.580951 16.9232 0.568407 16.9779 0.566627C17.0326 0.564847 17.0871 0.573866 17.1384 0.59317C17.1896 0.612473 17.2365 0.641683 17.2764 0.679129Z" fill="#2A2A2E"/>
</svg>
