<svg width="13" height="10" viewBox="0 0 13 10" fill="none" xmlns="http://www.w3.org/2000/svg">
<path d="M9.23351 0.643006L4.85351 5.02351L3.29151 3.46201C3.10399 3.27453 2.84968 3.16922 2.58451 3.16922C2.31935 3.16922 2.06504 3.27453 1.87751 3.46201L0.762513 4.57701C0.575042 4.76453 0.469727 5.01884 0.469727 5.28401C0.469727 5.54917 0.575042 5.80348 0.762513 5.99101L4.14601 9.37451C4.33354 9.56198 4.58785 9.66729 4.85301 9.66729C5.11818 9.66729 5.37249 9.56198 5.56001 9.37451L11.7625 3.17201C11.95 2.98448 12.0553 2.73017 12.0553 2.46501C12.0553 2.19984 11.95 1.94553 11.7625 1.75801L10.6475 0.643006C10.46 0.455535 10.2057 0.35022 9.94051 0.35022C9.67535 0.35022 9.42104 0.455535 9.23351 0.643006Z" fill="#32A923"/>
</svg>
