<svg width="18" height="14" viewBox="0 0 18 14" fill="none" xmlns="http://www.w3.org/2000/svg">
<path d="M16.877 0.779104L17.7887 1.6341C17.8287 1.67152 17.8609 1.71644 17.8835 1.76631C17.906 1.81617 17.9186 1.87 17.9204 1.92472C17.9221 1.97943 17.9131 2.03396 17.8938 2.08519C17.8745 2.13642 17.8453 2.18334 17.8079 2.22327L7.6762 13.0299C7.49703 13.2211 7.25241 13.3377 6.99109 13.3566C6.72976 13.3754 6.47094 13.2951 6.2662 13.1316L6.17953 13.0541L0.224533 7.0991C0.146421 7.02097 0.102539 6.91501 0.102539 6.80452C0.102539 6.69404 0.146421 6.58807 0.224533 6.50994L1.10787 5.62577C1.186 5.54766 1.29197 5.50378 1.40245 5.50378C1.51294 5.50378 1.6189 5.54766 1.69703 5.62577L6.89203 10.8208L16.2879 0.798271C16.3253 0.758309 16.3702 0.726112 16.4201 0.703519C16.4699 0.680927 16.5238 0.668382 16.5785 0.666602C16.6332 0.664822 16.6877 0.673842 16.739 0.693145C16.7902 0.712449 16.8371 0.741659 16.877 0.779104Z" fill="#2A2A2E"/>
</svg>
