<svg width="19" height="14" viewBox="0 0 19 14" fill="none" xmlns="http://www.w3.org/2000/svg">
<path d="M17.4766 0.779104L18.3883 1.6341C18.4283 1.67152 18.4605 1.71644 18.4831 1.76631C18.5057 1.81617 18.5182 1.87 18.52 1.92472C18.5218 1.97943 18.5127 2.03396 18.4934 2.08519C18.4741 2.13642 18.4449 2.18334 18.4075 2.22327L8.27581 13.0299C8.09664 13.2211 7.85202 13.3377 7.5907 13.3566C7.32937 13.3754 7.07055 13.2951 6.86581 13.1316L6.77914 13.0541L0.824143 7.0991C0.74603 7.02097 0.702148 6.91501 0.702148 6.80452C0.702148 6.69404 0.74603 6.58807 0.824143 6.50994L1.70748 5.62577C1.78561 5.54766 1.89157 5.50378 2.00206 5.50378C2.11254 5.50378 2.21851 5.54766 2.29664 5.62577L7.49164 10.8208L16.8875 0.798271C16.9249 0.758309 16.9698 0.726112 17.0197 0.703519C17.0695 0.680927 17.1234 0.668382 17.1781 0.666602C17.2328 0.664822 17.2873 0.673842 17.3386 0.693145C17.3898 0.712449 17.4367 0.741659 17.4766 0.779104Z" fill="#2A2A2E"/>
</svg>
