<svg width="13" height="10" viewBox="0 0 13 10" fill="none" xmlns="http://www.w3.org/2000/svg">
<path d="M9.69738 0.643006L5.31738 5.02351L3.75538 3.46201C3.56785 3.27453 3.31354 3.16922 3.04838 3.16922C2.78322 3.16922 2.52891 3.27453 2.34138 3.46201L1.22638 4.57701C1.03891 4.76453 0.933594 5.01884 0.933594 5.28401C0.933594 5.54917 1.03891 5.80348 1.22638 5.99101L4.60988 9.37451C4.79741 9.56198 5.05172 9.66729 5.31688 9.66729C5.58204 9.66729 5.83635 9.56198 6.02388 9.37451L12.2264 3.17201C12.4139 2.98448 12.5192 2.73017 12.5192 2.46501C12.5192 2.19984 12.4139 1.94553 12.2264 1.75801L11.1114 0.643006C10.9239 0.455535 10.6695 0.35022 10.4044 0.35022C10.1392 0.35022 9.88491 0.455535 9.69738 0.643006Z" fill="#32A923"/>
</svg>
