<svg width="19" height="14" viewBox="0 0 19 14" fill="none" xmlns="http://www.w3.org/2000/svg">
<path d="M17.2764 0.779104L18.1881 1.6341C18.2281 1.67152 18.2603 1.71644 18.2829 1.76631C18.3055 1.81617 18.318 1.87 18.3198 1.92472C18.3216 1.97943 18.3125 2.03396 18.2932 2.08519C18.2739 2.13642 18.2447 2.18334 18.2073 2.22327L8.07561 13.0299C7.89645 13.2211 7.65182 13.3377 7.3905 13.3566C7.12918 13.3754 6.87035 13.2951 6.66561 13.1316L6.57895 13.0541L0.623948 7.0991C0.545835 7.02097 0.501953 6.91501 0.501953 6.80452C0.501953 6.69404 0.545835 6.58807 0.623948 6.50994L1.50728 5.62577C1.58542 5.54766 1.69138 5.50378 1.80186 5.50378C1.91235 5.50378 2.01831 5.54766 2.09645 5.62577L7.29145 10.8208L16.6873 0.798271C16.7247 0.758309 16.7696 0.726112 16.8195 0.703519C16.8693 0.680927 16.9232 0.668382 16.9779 0.666602C17.0326 0.664822 17.0871 0.673842 17.1384 0.693145C17.1896 0.712449 17.2365 0.741659 17.2764 0.779104Z" fill="#2A2A2E"/>
</svg>
