<svg width="13" height="11" viewBox="0 0 13 11" fill="none" xmlns="http://www.w3.org/2000/svg">
<path d="M9.23351 1.07306L4.85351 5.45356L3.29151 3.89206C3.10399 3.70459 2.84968 3.59927 2.58451 3.59927C2.31935 3.59927 2.06504 3.70459 1.87751 3.89206L0.762513 5.00706C0.575042 5.19459 0.469727 5.4489 0.469727 5.71406C0.469727 5.97922 0.575042 6.23353 0.762513 6.42106L4.14601 9.80456C4.33354 9.99203 4.58785 10.0973 4.85301 10.0973C5.11818 10.0973 5.37249 9.99203 5.56001 9.80456L11.7625 3.60206C11.95 3.41453 12.0553 3.16022 12.0553 2.89506C12.0553 2.6299 11.95 2.37559 11.7625 2.18806L10.6475 1.07306C10.46 0.885589 10.2057 0.780273 9.94051 0.780273C9.67535 0.780273 9.42104 0.885589 9.23351 1.07306Z" fill="#32A923"/>
</svg>
